<svg width="20" height="16" viewBox="0 0 20 16" fill="none" xmlns="http://www.w3.org/2000/svg">
<path d="M12.0306 0.719385L18.7806 7.46938C18.8504 7.53904 18.9057 7.62176 18.9434 7.7128C18.9812 7.80385 19.0006 7.90145 19.0006 8.00001C19.0006 8.09857 18.9812 8.19617 18.9434 8.28722C18.9057 8.37826 18.8504 8.46098 18.7806 8.53064L12.0306 15.2806C11.8899 15.4214 11.699 15.5004 11.5 15.5004C11.301 15.5004 11.1101 15.4214 10.9694 15.2806C10.8286 15.1399 10.7496 14.949 10.7496 14.75C10.7496 14.551 10.8286 14.3601 10.9694 14.2194L16.4397 8.75001L1.75 8.75001C1.55109 8.75001 1.36032 8.67099 1.21967 8.53034C1.07902 8.38969 1 8.19892 1 8.00001C1 7.8011 1.07902 7.61033 1.21967 7.46968C1.36032 7.32903 1.55109 7.25001 1.75 7.25001L16.4397 7.25001L10.9694 1.78064C10.8286 1.63991 10.7496 1.44903 10.7496 1.25001C10.7496 1.05099 10.8286 0.860115 10.9694 0.719385C11.1101 0.578654 11.301 0.499593 11.5 0.499593C11.699 0.499593 11.8899 0.578654 12.0306 0.719385Z" fill="white" stroke="white"/>
</svg>
