<svg width="38" height="48" viewBox="0 0 38 48" fill="none" xmlns="http://www.w3.org/2000/svg">
<path d="M19 0.374756C14.0786 0.380339 9.36043 2.33782 5.8805 5.81775C2.40056 9.29769 0.443083 14.0159 0.4375 18.9373C0.4375 34.8209 17.3125 46.8169 18.0318 47.3189C18.3155 47.5177 18.6536 47.6243 19 47.6243C19.3464 47.6243 19.6845 47.5177 19.9682 47.3189C20.6875 46.8169 37.5625 34.8209 37.5625 18.9373C37.5569 14.0159 35.5994 9.29769 32.1195 5.81775C28.6396 2.33782 23.9214 0.380339 19 0.374756ZM19 12.1873C20.335 12.1873 21.6401 12.5831 22.7501 13.3248C23.8601 14.0665 24.7253 15.1207 25.2362 16.3541C25.7471 17.5875 25.8808 18.9447 25.6203 20.2541C25.3599 21.5635 24.717 22.7662 23.773 23.7102C22.829 24.6542 21.6262 25.2971 20.3169 25.5576C19.0075 25.818 17.6503 25.6843 16.4169 25.1734C15.1835 24.6626 14.1293 23.7974 13.3876 22.6874C12.6459 21.5773 12.25 20.2723 12.25 18.9373C12.25 17.147 12.9612 15.4302 14.227 14.1643C15.4929 12.8984 17.2098 12.1873 19 12.1873Z" fill="white"/>
</svg>
