<svg width="20" height="20" viewBox="0 0 20 20" fill="none" xmlns="http://www.w3.org/2000/svg">
<path d="M10 3.05176e-05C4.477 3.05176e-05 0 4.47703 0 10C0 15.523 4.477 20 10 20C15.523 20 20 15.523 20 10C20 4.47703 15.523 3.05176e-05 10 3.05176e-05ZM10.5 15H9.5C9.224 15 9 14.776 9 14.5V13.5C9 13.224 9.224 13 9.5 13H10.5C10.776 13 11 13.224 11 13.5V14.5C11 14.776 10.776 15 10.5 15ZM10 11C9.448 11 9 10.552 9 10V6.00003C9 5.44803 9.448 5.00003 10 5.00003C10.552 5.00003 11 5.44803 11 6.00003V10C11 10.552 10.552 11 10 11Z" fill="white"/>
</svg>
