<svg width="80" height="80" viewBox="0 0 80 80" fill="none" xmlns="http://www.w3.org/2000/svg">
<circle opacity="0.1" cx="40" cy="40" r="40" fill="white"/>
<path d="M40.0001 21.6667C34.4604 21.6667 30.0001 26.127 30.0001 31.6667V33.3333C28.1667 33.3333 26.6667 34.8333 26.6667 36.6667V53.3333C26.6667 55.1667 28.1667 56.6667 30.0001 56.6667H50.0001C51.8334 56.6667 53.3334 55.1667 53.3334 53.3333V36.6667C53.3334 34.8333 51.8334 33.3333 50.0001 33.3333V31.6667C50.0001 26.127 45.5398 21.6667 40.0001 21.6667ZM40.0001 25C43.7937 25 46.6667 27.873 46.6667 31.6667V33.3333H33.3334V31.6667C33.3334 27.873 36.2064 25 40.0001 25ZM40.0001 41.6667C41.8334 41.6667 43.3334 43.1667 43.3334 45C43.3334 46.8333 41.8334 48.3333 40.0001 48.3333C38.1667 48.3333 36.6667 46.8333 36.6667 45C36.6667 43.1667 38.1667 41.6667 40.0001 41.6667Z" fill="white"/>
</svg>
