<svg width="25" height="25" viewBox="0 0 25 25" fill="none" xmlns="http://www.w3.org/2000/svg">
<path d="M24.415 6.17134L18.8288 0.586345C18.643 0.400579 18.4225 0.253219 18.1799 0.152681C17.9372 0.0521434 17.6771 0.000396729 17.4144 0.000396729C17.1517 0.000396729 16.8916 0.0521434 16.6489 0.152681C16.4062 0.253219 16.1857 0.400579 16 0.586345L0.58626 16.0001C0.399734 16.1851 0.251852 16.4054 0.151209 16.6481C0.0505661 16.8908 -0.000829299 17.1511 1.01187e-05 17.4138V23.0001C1.01187e-05 23.5305 0.210724 24.0392 0.585796 24.4143C0.960869 24.7894 1.46958 25.0001 2.00001 25.0001H23C23.2652 25.0001 23.5196 24.8947 23.7071 24.7072C23.8947 24.5197 24 24.2653 24 24.0001C24 23.7349 23.8947 23.4805 23.7071 23.293C23.5196 23.1055 23.2652 23.0001 23 23.0001H10.415L24.415 9.00009C24.6008 8.81437 24.7481 8.59387 24.8487 8.35119C24.9492 8.10851 25.001 7.8484 25.001 7.58572C25.001 7.32304 24.9492 7.06293 24.8487 6.82025C24.7481 6.57757 24.6008 6.35707 24.415 6.17134ZM7.58626 23.0001H2.00001V17.4138L13 6.41384L18.5863 12.0001L7.58626 23.0001ZM20 10.5863L14.415 5.00009L17.415 2.00009L23 7.58634L20 10.5863Z" fill="#EEEEEE"/>
</svg>
