<svg width="25" height="25" viewBox="0 0 25 25" fill="none" xmlns="http://www.w3.org/2000/svg">
<path d="M23.7963 16.8076L17.9075 14.1688L17.8913 14.1613C17.5856 14.0306 17.2521 13.9781 16.921 14.0087C16.5899 14.0392 16.2716 14.1519 15.995 14.3363C15.9624 14.3579 15.9311 14.3812 15.9013 14.4063L12.8588 17.0001C10.9313 16.0638 8.94126 14.0888 8.00501 12.1863L10.6025 9.0976C10.6275 9.06635 10.6513 9.0351 10.6738 9.00135C10.8543 8.72548 10.9638 8.40925 10.9926 8.08081C11.0214 7.75238 10.9686 7.42192 10.8388 7.11885V7.10385L8.19251 1.2051C8.02094 0.809179 7.72592 0.479367 7.35149 0.264896C6.97707 0.0504254 6.54333 -0.0372008 6.11501 0.015098C4.42122 0.237981 2.86649 1.06981 1.74118 2.35522C0.61587 3.64063 -0.00305116 5.29171 1.13108e-05 7.0001C1.13108e-05 16.9251 8.07501 25.0001 18 25.0001C19.7084 25.0032 21.3595 24.3842 22.6449 23.2589C23.9303 22.1336 24.7621 20.5789 24.985 18.8851C25.0374 18.4569 24.95 18.0233 24.7357 17.6489C24.5215 17.2745 24.1919 16.9794 23.7963 16.8076ZM18 23.0001C13.758 22.9955 9.691 21.3083 6.69142 18.3087C3.69184 15.3091 2.00464 11.2421 2.00001 7.0001C1.99531 5.77946 2.43507 4.59884 3.23718 3.67873C4.03929 2.75862 5.14889 2.16193 6.35876 2.0001C6.35827 2.00509 6.35827 2.01011 6.35876 2.0151L8.98376 7.8901L6.40001 10.9826C6.37379 11.0128 6.34996 11.045 6.32876 11.0788C6.14066 11.3675 6.0303 11.6998 6.0084 12.0437C5.9865 12.3875 6.0538 12.7312 6.20376 13.0413C7.33626 15.3576 9.67001 17.6738 12.0113 18.8051C12.3237 18.9537 12.6694 19.0186 13.0144 18.9936C13.3595 18.9687 13.6922 18.8546 13.98 18.6626C14.0121 18.641 14.043 18.6176 14.0725 18.5926L17.1113 16.0001L22.9863 18.6313C22.9863 18.6313 22.9963 18.6313 23 18.6313C22.8402 19.8429 22.2444 20.9548 21.3241 21.7589C20.4038 22.563 19.2221 23.0042 18 23.0001Z" fill="#EEEEEE"/>
</svg>
